<?xml version="1.0" encoding="utf-8"?>
<svg xmlns="http://www.w3.org/2000/svg">
<symbol id="atomico" viewBox="0 0 260 260">
  <path fill="#150202"
    d="M172 46a43 43 0 0 0-37 20 74 74 0 0 0-12-1 74 74 0 0 0-75 74 74 74 0 0 0 75 75 74 74 0 0 0 30-7 37 37 0 0 0 18 5 37 37 0 0 0 36-37 37 37 0 0 0-11-27 74 74 0 0 0 1-9 74 74 0 0 0-2-14 43 43 0 0 0 20-36 43 43 0 0 0-43-43z" />
  <g fill="#fff">
    <path
      d="M193 197a31 31 0 0 1-3 3h-28a72 72 0 0 0 5-4h27a31 31 0 0 1-1 1zm4-4h-26a73 73 0 0 0 4-4h24a31 31 0 0 1-2 4zm-13 11a31 31 0 0 1-12 2 31 31 0 0 1-13-2h25zm17-19h-23a73 73 0 0 0 3-3h21a31 31 0 0 1-1 3zm1-7h-19a72 72 0 0 0 3-4h16a32 32 0 0 1 0 4zm0-7h-15a71 71 0 0 0 2-4h12a31 31 0 0 1 1 4zm-2-8h-10l2-4h6a31 31 0 0 1 2 4zm-5-7h-2a71 71 0 0 0 0-3 31 31 0 0 1 2 3zM171 188a69 69 0 0 1-11 8 68 68 0 0 1-12 7 68 68 0 0 1-13 3 69 69 0 0 1-13 2 69 69 0 0 1-13-2 68 68 0 0 1-13-3 68 68 0 0 1-11-7 69 69 0 0 1-11-8 69 69 0 0 1-9-11 68 68 0 0 1-6-12 68 68 0 0 1-4-13 69 69 0 0 1-1-13 69 69 0 0 1 1-13 68 68 0 0 1 4-13 68 68 0 0 1 6-11 69 69 0 0 1 9-11 69 69 0 0 1 13-10 68 68 0 0 1 14-7 69 69 0 0 1 16-3 69 69 0 0 1 16 1 43 43 0 0 0 8 48 43 43 0 0 0 49 9 69 69 0 0 1 0 16 69 69 0 0 1-3 15 68 68 0 0 1-6 15 69 69 0 0 1-10 13z" />
    <path
      d="m185 125 23-22a38 38 0 0 1-9 14 38 38 0 0 1-14 8zm-8 3a39 39 0 0 1-7 0l40-40a39 39 0 0 1 0 7zm-13-1a39 39 0 0 1-5-1l49-49a39 39 0 0 1 1 5zm-10-3a38 38 0 0 1-4-3l54-53a38 38 0 0 1 2 4zm-7-5-3-2-1-2 55-54 1 1 2 2zm-7-7a38 38 0 0 1-2-4l52-52a38 38 0 0 1 4 2zm-4-8a38 38 0 0 1-2-6l47-46a38 38 0 0 1 5 2zm-3-11a39 39 0 0 1 0-7l35-35a39 39 0 0 1 7 0zm1-14a38 38 0 0 1 10-17 38 38 0 0 1 17-10z" />
  </g>
</symbol>
<symbol id="bundler" viewBox="0 0 135 135">
  <path fill="#b18d5e" d="m10 98 57 32V59L10 27v71z" />
  <path fill="#87653a" d="M67 130V59l57-26v68l-57 29" />
  <path fill="#e4b880" d="m10 27 57 32 57-26L68 6Z" />
  <path fill="#e7e7e7" d="m33 19 54 31 19-9-55-29z" />
  <path fill="#c7c7c7" d="M87 50v15l19-9V41l-19 9z" />
</symbol>
<symbol id="css" viewBox="0 0 300 300">
  <path fill="#1572b6" d="M50 263 28 13h245l-22 250-101 28zm0 0" />
  <path fill="#33a9dc" d="m150 270 82-23 19-214H150zm0 0" />
  <path fill="#fff" d="M150 124h41l3-31h-44V62h78l-1 8-8 85h-69zm0 0" />
  <path fill="#ebebeb" d="m151 204-35-9-2-25H83l5 48 63 18zm0 0" />
  <path fill="#fff" d="m189 153-4 42-34 9v32l63-18v-5l5-60zm0 0" />
  <path fill="#ebebeb" d="M151 62v31H76v-7l-2-16v-8zm-1 62v31h-33l-1-7-1-16-1-8zm0 0" />
</symbol>
<symbol id="gulpjs" viewBox="0 0 175 387">
  <path d="m20 288 4 7 29 22 74-10 22-12 4-7 21-184v-6l-78-7-95 7 3 17 16 173z" fill="#f7fcff" />
  <g fill="#DA4648">
    <path
      d="M87 86C39 86 0 91 0 98s39 12 87 12c49 0 87-5 87-12s-38-12-87-12zm25 13c6 0 10 1 10 2 0 2-4 3-10 3s-10-1-10-3c0-1 4-2 10-2zm62 5-5 2-20 4a472 472 0 0 1-147-6l6 62 7 62 5 60c2 4 30 13 67 13s65-9 66-13l8-71 1-10 2-11 1-9 9-83zm-25 191-14 4a211 211 0 0 1-111-4l12 19 4 60c0 7 21 12 48 12 26 0 47-5 47-12l4-60 10-19z" />
    <path d="M104 100v1l8 1 8-1 11-45 43-45c1-1-1-5-4-7-3-3-6-4-7-3l-46 49-13 50z" />
  </g>
</symbol>
<symbol id="html" viewBox="0 0 300 300">
  <path fill="#e34f26" d="M50 264 28 13h246l-22 251-101 28" />
  <path fill="#ef652a" d="m151 270 82-22 19-215H151" />
  <path fill="#ebebeb" d="M151 126h-41l-2-31h43V64H74v8l8 85h69zm0 80-35-9-2-24H84l3 48 64 18z" />
  <path fill="#fff" d="M151 126v31h38l-4 40-34 9v33l63-18 1-5 7-82 1-8h-9zm0-62v31h74l1-7 2-16v-8z" />
</symbol>
<symbol id="js" viewBox="0 0 128 128">
  <path fill="#f0db4f" d="M13 13h99v100H13z" />
  <path fill="#323330"
    d="M104 89c-1-4-3-8-12-12-3-1-7-2-8-5v-3c1-2 4-3 6-2a7 7 0 0 1 4 3l8-4a19 19 0 0 0-3-3c-2-3-6-5-11-5l-3 1c-3 0-6 2-7 4a13 13 0 0 0 2 19c6 4 14 5 15 9 1 5-4 6-8 6-3-1-5-3-7-6l-8 4 3 5c8 7 26 7 29-4v-7zM67 59h-9v24l-1 11c-1 3-5 3-7 2a8 8 0 0 1-3-3l-1-1-7 5a15 15 0 0 0 5 6c4 2 9 3 14 2 3-1 6-3 7-6 2-4 2-9 2-14V59z" />
</symbol>
<symbol id="lit" viewBox="0 0 160 200">
  <path fill="#324fff" d="M0 80v80a70 70 0 0 0 40-40z" />
  <path fill="#283198" d="M40 120c6 27 5 47 0 80L0 160z" />
  <path fill="#0ff" d="M40 120v80l40-40a150 150 0 0 0-40-40z" />
  <path fill="#324fff" d="M80 0v80S48 56 40 40z" />
  <path fill="#324fff" d="M40 40v80a85 85 0 0 0 40-40z" />
  <path fill="#00e8ff" d="M80 80a182 182 0 0 1 0 80l-40-40z" />
  <path fill="#283198" d="M80 80v80c17-7 32-19 40-40-6-17-18-31-40-40z" />
  <path fill="#283198" d="M120 40v80L80 80z" />
  <path fill="#00e8ff" d="M120 120c6 27 5 54 0 80l-40-40z" />
  <path fill="#324fff" d="M120 120v80l40-40c-5-15-18-28-40-40z" />
  <path fill="#324fff" d="M160 80v80l-40-40z" />
</symbol>
<symbol id="npm" viewBox="0 0 300 117">
  <path fill="#cb3837" d="M86 118h65v-16h145V5H5v97h81z" />
  <path fill="#fff"
    d="M86 37V21H21v65h32V37h17v49h16zm16-16v81h33V86h32V21zm49 48h-16V37h16zm64 17V37h16v49h17V37h16v49h16V21h-97v65z" />
</symbol>
<symbol id="postcss" viewBox="0 0 512 512">
  <path fill="#dd3735"
    d="M248 2a97 97 0 0 0-1 0 146 146 0 0 0-14 1l-15 2-16 2-16 3-6 1a108 108 0 0 0-13 3 336 336 0 0 0-22 7 202 202 0 0 0-19 9l-19 12-17 13a200 200 0 0 0-16 14l-7 9-13 14-10 14a218 218 0 0 0-15 24l-5 10-8 16a65 65 0 0 0-4 11l-7 26a96 96 0 0 0-3 23 162 162 0 0 0 1 20c1 2-1 4 2 5l-1 1a2 2 0 0 0 1 3 1 1 0 0 1 1 0H5v4l1 2a6 6 0 0 0 0 2 40 40 0 0 1 1 4l1 4a2 2 0 0 1 0 2c-1 1-1 2 1 3a2 2 0 0 1 1 1 19 19 0 0 1-1 3v2a23 23 0 0 1 2 9 7 7 0 0 0 1 2 3 3 0 0 1 1 1l-1 3a14 14 0 0 1 2-1 53 53 0 0 0 2 6 3 3 0 0 0 1 1l-1 1a52 52 0 0 0 3 9l-1-10v-1a12 12 0 0 1 1 2l5 1a16 16 0 0 1 0-1l-3-4a5 5 0 0 1 0 2l-2-1a30 30 0 0 1 2-2c0-2-1-3-3-3l3-1a12 12 0 0 0 1 1c1-2-1-4-1-7a44 44 0 0 0-2-9l-1-16-1-1-1 2 1 13-3-12a20 20 0 0 0 0 3l-1-1 1 4a6 6 0 0 0-2-1v5a23 23 0 0 1-3-4l-1-4a9 9 0 0 1 0-2l-1-4 2-1-2-2a28 28 0 0 0 3 0v-5l2-1c2-3 4-5 4-8a46 46 0 0 1 1-5v-8a79 79 0 0 1 1-11 235 235 0 0 1 10-31 199 199 0 0 1 8-20l15-27 11-16 10-16a139 139 0 0 1 18-19l21-19a209 209 0 0 1 31-19 232 232 0 0 1 27-12l18-5a72 72 0 0 1 20-3l14-2 13-1a8 8 0 0 0-1 2l-6 8-5 7-8 11-12 17-12 16-17 22-16 21-12 19-19 28-15 21a4 4 0 0 1-2 1l-1 1a20 20 0 0 1 0 3l-5 8-3 4h-1c1-2 4-3 3-6l-3 4-2 4c1 1 2 1 1 2l-2 3 2-2a25 25 0 0 1-2 5 14 14 0 0 1-4 4h2l1-1h1a8 8 0 0 0 1-1 6 6 0 0 1 4-4 7 7 0 0 0 2-1l15-16 20-27 10-11a230 230 0 0 0 0 11l-2 19v15l-2 19a10 10 0 0 0 1 4 5 5 0 0 0-1-1 188 188 0 0 1 1 30l1-1a26 26 0 0 0 0-4 21 21 0 0 0 0-3v-2a58 58 0 0 0 1-9 32 32 0 0 1 0-10l1-5v3a239 239 0 0 1-1 29c-1 1 0 2-2 2l-1 2v9l1 1v11h1a128 128 0 0 0 2-20 68 68 0 0 1 0 9v13a13 13 0 0 1-1 2 46 46 0 0 1-1 7 19 19 0 0 0 0 7v13l-1 1a2 2 0 0 0 0 1l1 3v1a5 5 0 0 0 0-2c3 0 2 3 3 4l-1 1a8 8 0 0 1 0 2 39 39 0 0 1 0 4v18h1a9 9 0 0 1-2 2v-22h-3a180 180 0 0 1-1 29 44 44 0 0 1-5 1h-35l-9 1-13-1-19 1H48l-9 1a28 28 0 0 0-4 1 15 15 0 0 0-3 0l-5 2c-2 0-3 1-3 3v2a5 5 0 0 0-1-1l1 2 2-1h2l-1 1 3-1a5 5 0 0 1 0 2 22 22 0 0 1 7-1 136 136 0 0 0 20 3l13 1 20 1 15-1 22 1h18l33-1 19-1 20-1h39l19-1 10-1 13-1 18-1 24-1 21-1h20l10-1h11l19-2h39l-3 3a11 11 0 0 1 2 1h-1l-2 1a11 11 0 0 0-1 3h3l-3 2v1c-2-1-3-1-4 1a4 4 0 0 0 2 0l-1 2a3 3 0 0 0 0 1h-1a2 2 0 0 0 0-1c-1 1-3 1-2 4l-2 1a8 8 0 0 1 1 1c-2 0-3 0-3 2l2 1-3 1-1 2c-2 0-1 1 0 2a7 7 0 0 1-1 1 3 3 0 0 1 1 0 10 10 0 0 1-1 1 6 6 0 0 0 1 0l-3 2a2 2 0 0 0 0 1 15 15 0 0 0-2 3 34 34 0 0 1-2 3 63 63 0 0 1-11 12 37 37 0 0 0-4 4l-9 9-14 10-17 12-9 5-10 6a49 49 0 0 1-6 4l-18 7h-1l-13 5a98 98 0 0 1-12 4 37 37 0 0 1-4 0l-9 1-23 3-13 2h-9a46 46 0 0 1-7 0l-11-2a5 5 0 0 0-3 0h-4l-2-1h-2a16 16 0 0 0-6-1 22 22 0 0 1-6-1l-9-2a15 15 0 0 1-4-2 3 3 0 0 1-1 1 47 47 0 0 1-9-2 15 15 0 0 0-7-2h-2l-2-2c-3 0-5-3-8-3l-4-3c-4-2-7-5-11-5a25 25 0 0 1-5-2 15 15 0 0 0 2 2h-1l-13-8-2-1-5-3-1-1h-3c-5-3-10-5-14-9a28 28 0 0 1-6-4 27 27 0 0 0-8-7l-8-4a5 5 0 0 1-2-4c0-1-1-3-2-2l-2-2a18 18 0 0 1-5-4c-2-2-3-4-5-4a20 20 0 0 1-8-7l-13-18a12 12 0 0 0-2-1l3 5-1 1-3-4h-1l12 20 3 5a7 7 0 0 1-5-3 6 6 0 0 0-6-4 30 30 0 0 1-1-4 14 14 0 0 1-3 0l7 11-2-1 9 9c1 4 6 6 7 10l-3-1-4-5a9 9 0 0 0 1 3 65 65 0 0 0 7 8l2 2a5 5 0 0 1 1-1 11 11 0 0 0 0 2h1c1 1 0 3 2 2l1 1c0 2 2 2 4 1a1 1 0 0 1 1 0c1 2 2 2 4 1v2h1l-1-1 2 1a29 29 0 0 0 6 7l9 8a131 131 0 0 0 19 13l25 14a132 132 0 0 0 32 11l12 3 11 3 16 4h8c1 2 2 1 3 1a15 15 0 0 1 4-1 132 132 0 0 0 14 1c1 0 2-1 3 1h1l2-1v1a8 8 0 0 1-1 0 14 14 0 0 1 2 0 2 2 0 0 1-1 1 8 8 0 0 0-2 1 38 38 0 0 0 17 0v-1h1a2 2 0 0 0 0 1 55 55 0 0 0 23-3c1 1 2 2 3 0l1-1a9 9 0 0 1 5 0l3-1a32 32 0 0 0 6-1l3-1a28 28 0 0 0-3 0l5-3h1l-2 1h2l-2 3 18-5h-2c0-3 4-2 5-4l-5 1 18-8v1l-4 2a22 22 0 0 1 2 0v1c3 0 2-3 3-4h2a44 44 0 0 0 5-1 57 57 0 0 0 5-2l8-4a8 8 0 0 1 2 0 2 2 0 0 0 1-1l2-1a4 4 0 0 0 5-3 25 25 0 0 1 3-2l11-6h1a4 4 0 0 0 1 0l6-4h-1v-1a21 21 0 0 0 3 0v-1l14-11a10 10 0 0 0 2 0 4 4 0 0 0 0-1 16 16 0 0 1 2-3l11-10 15-15a139 139 0 0 0 11-15l13-23 9-16 2-1 14-2a13 13 0 0 0 3-1l-2-3-2-3a16 16 0 0 1-2-3l-1-2a62 62 0 0 1-3-6 4 4 0 0 1 0-2l7-20a105 105 0 0 0 5-22l3-21 1-15a144 144 0 0 0 1-22l-1-20-1-20-5-27a155 155 0 0 0-7-22 257 257 0 0 0-10-24 378 378 0 0 0-24-36c-5-7-12-13-17-21a53 53 0 0 0-11-12l-22-15a193 193 0 0 0-16-11l-15-7a73 73 0 0 0-17-6 44 44 0 0 1-4-2l-12-4-18-5a164 164 0 0 0-18-4l-21-2-13-1-20-1a97 97 0 0 0-9 0zm14 20 7 1h8l18 2 16 3a220 220 0 0 1 33 8l18 8a377 377 0 0 1 41 19 40 40 0 0 1 9 9l13 14 15 17 13 16a55 55 0 0 1 3 5l9 12a71 71 0 0 1 4 11l5 16 3 12 1 8 1 11 1 2v2a2 2 0 0 0 0 1 7 7 0 0 0 1-1v1a8 8 0 0 0 0 2 4 4 0 0 0 0 1 14 14 0 0 1 2-1 68 68 0 0 1 1 18 40 40 0 0 1-1 16v-5a9 9 0 0 1-2-1v2l-1-1 1 7 3-1c-3 3-2 6-1 8 1 1 2 3 1 4v2h1v1h-2l-2-2v8l2 4a5 5 0 0 0 1-1 20 20 0 0 1-1 3 41 41 0 0 0-1 5l1 1a51 51 0 0 0-2 13v10a81 81 0 0 1-2 9l-1 1a14 14 0 0 0 0-5l-3-1a58 58 0 0 0 2 8l-3-1v7l-2 5 1 3h1l2-10 1 1a23 23 0 0 0-1 6v3a17 17 0 0 0 0 4 10 10 0 0 1-1-2h-1c-1 1 1 2 1 3h-1l-6-8-13-20a41 41 0 0 1-3-5 241 241 0 0 0-18-26l-13-20-13-19-5-6-13-21-12-17-4-6a3 3 0 0 1 0-2l-1-11v-13l1-3h-15a8 8 0 0 1-7-4 284 284 0 0 1-17-23l-16-23-14-18-15-20-19-25-9-11zm221 208zM246 31l1 1 14 17 10 13 12 16 13 20 19 28 14 21h-33l-33 2a487 487 0 0 1-41 2l-15 1-18 1h-33l16-22 5-7a11 11 0 0 1 2-2 16 16 0 0 0 2-3 35 35 0 0 0 2-4 2 2 0 0 1 0-1c3 1 3-1 4-2l4-5a35 35 0 0 0 3-4v-2h-1l2-2 3-4a74 74 0 0 1 7-8l-1 2 6-8-3 3v-1l5-7a26 26 0 0 1 1 3l2-4-1 1h-1l3-5 10-14 4-5a181 181 0 0 1 12-17 28 28 0 0 1 3-4h1zm-47 67-3 2h-1l1 3 3-5zm144 70a3 3 0 0 1 3 2l5 8a3 3 0 0 1 0 1v12l1 11v32h-1l-2-8a58 58 0 0 0-7-14l-9-15a28 28 0 0 0-3-3 60 60 0 0 0-12-11 140 140 0 0 0-22-11 50 50 0 0 1-6-3h34l18-1a3 3 0 0 1 1 0zm-129 5a37 37 0 0 1 4 0 58 58 0 0 0-8 4l-9 7a52 52 0 0 0-9 8l-10 11a107 107 0 0 0-7 8l-8 12 1-48 23-2h19a37 37 0 0 1 4 0zm43 8 15 1a26 26 0 0 1 7 1 61 61 0 0 1 7 4 85 85 0 0 1 9 5l14 9a39 39 0 0 1 12 12 53 53 0 0 1 10 16l2 12a14 14 0 0 1 1 6l-2 13a18 18 0 0 0 0 5 32 32 0 0 1-4 15l-3 5a5 5 0 0 0 2 0l1-3v1l-2 7-7 16a83 83 0 0 1-5 8l-5 7a24 24 0 0 1-5 5 132 132 0 0 1-14 10 36 36 0 0 1-10 4v-1a139 139 0 0 1-17 4 105 105 0 0 1-15 0h-13a45 45 0 0 1-15-3l-12-6a33 33 0 0 1-11-8 66 66 0 0 0-8-8 8 8 0 0 0 3 5c-1 1-2 1-4-2a10 10 0 0 1-1 1l2-4-3-4-4-7v-1a37 37 0 0 1-3-3 69 69 0 0 0-4-7v2l-4-8 3 11h-1a10 10 0 0 1-1-2l-2-1a2 2 0 0 0-1 2l4 9a21 21 0 0 0 1 3l1 1a29 29 0 0 0 2 4l5 6 4 6 1 1c1 2 4 4 6 3 0 4 5 6 6 9l-5-2v1a66 66 0 0 1 6 3 49 49 0 0 1 5 3 16 16 0 0 0 7 4 2 2 0 0 0 0-1l13 7-56 1v-10a30 30 0 0 0 0-4c0-8 0-15-2-23a167 167 0 0 1 0-25l-1-13v-18a6 6 0 0 1 1-2h1v1l2 1 3-2a17 17 0 0 0 1-7 6 6 0 0 1 1-3 16 16 0 0 0 1-2l-2-2c0-1 0-4 3-5v-1l1-5a5 5 0 0 0 1 1v-2c2 0 1-3 2-4v-2c3 0 2-3 4-4l1-2c2 3-1 4-1 6 3-2 4-6 2-7a10 10 0 0 0 2-2l6-6c1-2 1-4 3-5a10 10 0 0 1 3-2 21 21 0 0 0 8-7 9 9 0 0 1 1-1l2-1-1-1 3-2-1 3h1l5-3-1-1-4 2 1-1a63 63 0 0 1 7-4l18-8a8 8 0 0 1 3-1 4 4 0 0 0 2 0l8-2a14 14 0 0 1 4-1zm-6 3-5 3-1 1 4-2a6 6 0 0 1 2 1 13 13 0 0 1 0-3zm123 29a53 53 0 0 1 5 6 179 179 0 0 0 14 20l11 18 14 21 10 16 11 13 8 12 11 14 5 7a21 21 0 0 0 4 4 1 1 0 0 1-1-1 16 16 0 0 0 1 2c2 1 2 2 1 4v1a11 11 0 0 1-1-2c-1 3-3 1-4 1l-28 1h-27l-9 1h-21l-2-1a11 11 0 0 1-1 1l-1-1a12 12 0 0 1 0 2h-1a50 50 0 0 1-1-7l1-16v-7l1 2a15 15 0 0 1 2-2 3 3 0 0 1-1-1h1a7 7 0 0 0 0-2 18 18 0 0 0 0-3l1 5h1c-1-1 1-2-1-4v-1a36 36 0 0 1-1-4 4 4 0 0 1 1 0 16 16 0 0 0-1-1v-5a21 21 0 0 0 0-4c0-2 1-4-2-5a5 5 0 0 0 1 1 5 5 0 0 0-1 1c-3-2-1-5-2-8a28 28 0 0 1 3 1l-1-4h-1v-11h2v-1l-2-2a6 6 0 0 1 0-5v-12c1 2-1 4 1 5v-9l-1 1zM86 227a192 192 0 0 0-6 8l2 1 6-8-2-1zm-11 9-5 5h2l4-5a2 2 0 0 1-1 0zm3 2-3 2a1 1 0 0 1 1 1c-2 0-2 1-3 3l-2 1v2a3 3 0 0 1-1 1l-3 3a5 5 0 0 0-1 1l5-5v1l2-3-1 4-1 1-2 1-3 2-5 5-4 6c2-1 3 0 3 2 2 0 2-2 3-3v-1l5-4a2 2 0 0 0 1-2h-2l6-7 1-1c0-2 1-3 2-3a10 10 0 0 1-5 7 3 3 0 0 0 2 1l1-2 4-6 2-3h-1l-2 3a2 2 0 0 1-1-2 7 7 0 0 1 1-1 4 4 0 0 0 1 0l1-3zm1 4v-1zm270 52a388 388 0 0 0 5 58l-59 2a69 69 0 0 0 20-14 18 18 0 0 1 3-2 60 60 0 0 0 17-17 237 237 0 0 0 13-25 19 19 0 0 1 1-2zm-324 4a4 4 0 0 0-1 1l2 5a5 5 0 0 1 1-1l-2-5zm452 7v1zm-457 0v2l1 2v-1zm9 4a6 6 0 0 0-1 0l4 9a14 14 0 0 0 1 0 60 60 0 0 0-4-9zm-3 7-1 1h-3l1 1h4l-1-2zm-4 1zm161 5 6 8h-1a4 4 0 0 1-1 0l-4-6a2 2 0 0 1 0-2zm191 10v6l2-1-2-1c4-2 0-3 0-4zM76 428l5 6h2l1 3-3-3a8 8 0 0 1-2-1l-4-5zm333 33a29 29 0 0 0-3 0v1l-1 1v1a40 40 0 0 1 4-3zm-8 4-6 4a16 16 0 0 0 6-3zm-18 8c1 2 2 2 4 1a28 28 0 0 1-4-1zm-67 24c-8 2-10 3-11 2zm-11 2v1a11 11 0 0 0-3 0l-7 1h-3c0 3 3 1 4 2l-11 1 4-1a51 51 0 0 0-6-1l-1 1a9 9 0 0 1-2 1h-10v-1zm-36 4v1a91 91 0 0 1-10 1v-1z" />
</symbol>
<symbol id="rollup" viewBox="0 0 512 512">
  <defs>
    <linearGradient id="a" x1="109" x2="213" y1="154" y2="172">
      <stop offset="0%" stop-color="#FF6533" />
      <stop offset="16%" stop-color="#FF5633" />
      <stop offset="43%" stop-color="#FF4333" />
      <stop offset="71%" stop-color="#FF3733" />
      <stop offset="100%" stop-color="#F33" />
    </linearGradient>
    <linearGradient id="b" x1="93" x2="280" y1="128" y2="236">
      <stop offset="0%" stop-color="#BF3338" />
      <stop offset="100%" stop-color="#F33" />
    </linearGradient>
    <linearGradient id="c" x1="104" x2="132" y1="142" y2="162">
      <stop offset="0%" stop-color="#FF6533" />
      <stop offset="16%" stop-color="#FF5633" />
      <stop offset="43%" stop-color="#FF4333" />
      <stop offset="71%" stop-color="#FF3733" />
      <stop offset="100%" stop-color="#F33" />
    </linearGradient>
    <linearGradient id="d" x1="151" x2="146" y1="226" y2="222">
      <stop offset="0%" stop-color="#FF6533" />
      <stop offset="100%" stop-color="#F33" />
    </linearGradient>
    <linearGradient id="e" x1="110" x2="148" y1="151" y2="171">
      <stop offset="0%" stop-color="#FBB040" />
      <stop offset="100%" stop-color="#FB8840" />
    </linearGradient>
    <linearGradient id="f" x1="1" x2="0" y1="0" y2="1">
      <stop offset="0%" stop-color="#FFF" />
      <stop offset="100%" stop-color="#FFF" stop-opacity="0" />
    </linearGradient>
  </defs>
  <path fill="url(#a)"
    d="M413 188c0-25-6-47-17-67-30-31-94-38-110 0-17 38 27 81 46 77 25-4-4-60-4-60 38 71 29 49-39 114S152 454 142 460h-1 266c4 0 7-5 5-9l-69-137a6 6 0 0 1 2-9 135 135 0 0 0 68-117z" />
  <path fill="url(#b)"
    d="M413 188c0-25-6-47-17-67-30-31-94-38-110 0-17 38 27 81 46 77 25-4-4-60-4-60 38 71 29 49-39 114S152 454 142 460h-1 266c4 0 7-5 5-9l-69-137a6 6 0 0 1 2-9 135 135 0 0 0 68-117z" />
  <path fill="url(#c)" d="M142 460c10-6 79-143 147-208s77-43 39-114c0 0-143 201-195 301" />
  <path fill="url(#d)"
    d="M162 279C259 101 272 83 322 83c27 0 54 12 71 33a135 135 0 0 0-113-64H115a6 6 0 0 0-6 6v332c10-25 26-61 53-111z" />
  <path fill="url(#e)"
    d="M289 252c-68 65-137 202-147 208-10 5-27 6-36-4-10-11-25-28 56-177C259 101 272 83 322 83c27 0 54 12 71 33a268 268 0 0 1 3 5c-30-31-94-38-110 0-17 38 27 81 46 77 25-4-4-60-4-60 38 71 29 49-39 114z" />
  <path fill="url(#f)" opacity=".3"
    d="M170 287c97-178 110-196 160-196 22 0 44 8 60 23-17-20-43-31-68-31-50 0-63 18-160 196-81 149-66 166-56 177 1 1 3 3 4 4-8-12-12-40 59-172z" />
</symbol>
<symbol id="terminal" viewBox="0 0 24 24">
  <path fill="var(--icon-color, transparent)" d="M.33 1.76h23.5v20.18H.34z" />
  <path d="M.96 2.5v18.68h22.22V2.5z" />
  <path fill="#fff" d="m7.12 6.8 4.09 4.1-4.1 4.09-1.25-1.27 2.82-2.83-2.82-2.83zm4.62 8.52v1.45h5.68v-1.45z" />
</symbol>
<symbol id="vitejs" viewBox="0 0 512 512">
  <path fill="url(#a)"
    d="M503 80 269 497c-5 9-17 9-22 0L9 80c-6-10 2-21 13-19l234 42a13 13 0 0 0 4 0l229-42c11-2 19 9 14 19z" />
  <path fill="url(#b)"
    d="M367 6 194 40a6 6 0 0 0-5 6l-10 179c-1 5 3 8 7 7l48-11c5-1 9 3 8 7l-14 70c-1 5 3 9 8 8l30-9c4-2 9 2 8 7l-23 110c-1 7 8 10 12 5l2-4 141-281c2-5-2-10-7-10l-49 10c-5 1-9-3-8-8l33-112c1-5-3-9-8-8z" />
  <defs>
    <linearGradient id="a" x1="6" x2="235" y1="33" y2="344" gradientUnits="userSpaceOnUse">
      <stop stop-color="#41D1FF" />
      <stop offset="1" stop-color="#BD34FE" />
    </linearGradient>
    <linearGradient id="b" x1="195" x2="236" y1="9" y2="293" gradientUnits="userSpaceOnUse">
      <stop stop-color="#FFEA83" />
      <stop offset="0" stop-color="#FFDD35" />
      <stop offset="1" stop-color="#FFA800" />
    </linearGradient>
  </defs>
</symbol>
<symbol id="vuejs" viewBox="0 0 512 512">
  <path fill="#41b883" d="m310 17-57 99-57-99H7l246 426L498 17z" />
  <path fill="#34495e" d="m310 17-57 99-57-99h-91l148 257L400 17z" />
</symbol>
<symbol id="webcomponents" viewBox="0 0 128 128">
  <path fill="var(--bgcolor, #ffffff)"
    d="m31 12-1 1L2 63l29 51h67l15-26v-2l14-23-15-24v-2L98 12H31zm21 30h21l13 21-13 21H52L40 63z" />
  <path fill="#166da5" d="m122 63-12 21-18-21 18-21z" />
  <path fill="#8fdb69" d="M108 88 89 65 78 84l17 26z" />
  <path fill="#166da5" d="M108 38 89 61 78 42l17-26z" />
  <path fill="#000000" d="M63 110 35 63l28-47H33L6 63l27 47z" />
  <path fill="#287bbe" d="m50 38 13-22h32l13 22zm28 4h32l11 19H89z" />
  <path fill="#ddf021" d="m50 88 13 22h32l13-22zm28-4h32l11-19H89z" />
</symbol>
<symbol id="webpack" viewBox="0 0 210 297">
  <path d="m105 33 103 58v116l-103 58L3 207V91z" fill="#fff" />
  <path
    d="m189 203-80 45v-35l50-28zm6-5v-96l-30 17v62zm-174 5 81 45v-35l-51-28zm-6-5v-96l30 17v62zm4-102 83-47v35l-54 29zm172 0-82-47v35l53 29z"
    fill="#8ed6fb" />
  <path d="m102 205-50-28v-54l50 29zm7 0 49-27v-55l-49 29zm-54-88 50-27 50 27-50 29z" fill="#1c78c0" />
</symbol>
</svg>
