<?xml version="1.0" encoding="utf-8"?>
<svg xmlns="http://www.w3.org/2000/svg">
<symbol id="codepen" viewBox="0 0 24 24">
  <rect x="5" y="4" width="16" height="16" fill="var(--icon-color-secondary, transparent)" />
  <path
    d="M18.144 13.067v-2.134L16.55 12zm1.276 1.194a.628.628 0 0 1-.006.083l-.005.028-.011.053-.01.031a.443.443 0 0 1-.017.047l-.014.03a.78.78 0 0 1-.021.043l-.019.03a.57.57 0 0 1-.08.1l-.026.025a.602.602 0 0 1-.036.03l-.029.022-.01.008-6.782 4.522a.637.637 0 0 1-.708 0L4.864 14.79l-.01-.008a.599.599 0 0 1-.065-.052l-.026-.025-.032-.034-.021-.028a.588.588 0 0 1-.067-.11l-.014-.031a.644.644 0 0 1-.017-.047l-.01-.03c-.004-.018-.008-.036-.01-.054l-.006-.028a.628.628 0 0 1-.006-.083V9.739a.58.58 0 0 1 .006-.083l.005-.027.011-.054.01-.03a.574.574 0 0 1 .12-.217l.031-.034.026-.025a.62.62 0 0 1 .065-.052l.01-.008 6.782-4.521a.638.638 0 0 1 .708 0l6.782 4.521.01.008.03.022.035.03c.01.008.017.016.026.025a.545.545 0 0 1 .08.1l.019.03a.633.633 0 0 1 .021.043l.014.03c.007.016.012.032.017.047l.01.031c.004.018.008.036.01.054l.006.027a.619.619 0 0 1 .006.083zM12 0C5.373 0 0 5.372 0 12c0 6.627 5.373 12 12 12 6.628 0 12-5.372 12-12 0-6.627-5.372-12-12-12m0 10.492L9.745 12 12 13.51 14.255 12zm.638 4.124v2.975l4.996-3.33-2.232-1.493zm-6.272-.356 4.996 3.33v-2.974l-2.764-1.849zm11.268-4.52-4.996-3.33v2.974l2.764 1.85zm-6.272-.356V6.41L6.366 9.74l2.232 1.493zm-5.506 1.549v2.134L7.45 12z" />
</symbol>
<symbol id="discord" viewBox="0 0 24 24">
  <path fill="var(--icon-color-secondary, transparent)" d="M4.043 16.428 6.257 4.973l11.903-.256 1.38 11.775z" />
  <path
    d="M9.735 10.078c-.677 0-1.211.593-1.211 1.318 0 .724.546 1.318 1.211 1.318.677 0 1.212-.594 1.212-1.318.011-.725-.535-1.318-1.212-1.318zm4.335 0c-.677 0-1.212.593-1.212 1.318 0 .724.547 1.318 1.212 1.318.677 0 1.211-.594 1.211-1.318 0-.725-.534-1.318-1.211-1.318z"
    style="stroke-width: 0.118755;" />
  <path
    d="M19.841.114H3.928A2.44 2.44 0 0 0 1.494 2.56v16.056a2.44 2.44 0 0 0 2.434 2.447h13.467l-.63-2.197 1.52 1.413 1.438 1.33 2.553 2.256V2.56A2.44 2.44 0 0 0 19.84.114zm-4.584 15.51s-.427-.511-.783-.962c1.555-.44 2.149-1.414 2.149-1.414-.487.321-.95.547-1.366.701a7.816 7.816 0 0 1-1.722.51 8.32 8.32 0 0 1-3.075-.011 9.97 9.97 0 0 1-1.746-.51 6.96 6.96 0 0 1-.867-.405c-.036-.023-.071-.035-.107-.059a.164.164 0 0 1-.047-.036 4.166 4.166 0 0 1-.333-.201s.57.95 2.078 1.4c-.356.452-.795.987-.795.987-2.625-.084-3.622-1.806-3.622-1.806 0-3.823 1.71-6.923 1.71-6.923 1.71-1.283 3.337-1.247 3.337-1.247l.119.143c-2.138.617-3.124 1.555-3.124 1.555s.262-.142.7-.344c1.272-.558 2.281-.713 2.697-.748.07-.012.13-.024.202-.024a9.68 9.68 0 0 1 5.973 1.116s-.938-.89-2.957-1.508l.166-.19s1.627-.036 3.337 1.247c0 0 1.71 3.1 1.71 6.923 0 0-1.01 1.722-3.634 1.806z" />
</symbol>
<symbol id="github" viewBox="0 0 24 24">
  <circle cx="12" cy="13" r="10" fill="var(--icon-color-secondary, transparent)" />
  <path
    d="M12 .297c-6.63 0-12 5.373-12 12 0 5.303 3.438 9.8 8.205 11.385.6.113.82-.258.82-.577 0-.285-.01-1.04-.015-2.04-3.338.724-4.042-1.61-4.042-1.61C4.422 18.07 3.633 17.7 3.633 17.7c-1.087-.744.084-.729.084-.729 1.205.084 1.838 1.236 1.838 1.236 1.07 1.835 2.809 1.305 3.495.998.108-.776.417-1.305.76-1.605-2.665-.3-5.466-1.332-5.466-5.93 0-1.31.465-2.38 1.235-3.22-.135-.303-.54-1.523.105-3.176 0 0 1.005-.322 3.3 1.23.96-.267 1.98-.399 3-.405 1.02.006 2.04.138 3 .405 2.28-1.552 3.285-1.23 3.285-1.23.645 1.653.24 2.873.12 3.176.765.84 1.23 1.91 1.23 3.22 0 4.61-2.805 5.625-5.475 5.92.42.36.81 1.096.81 2.22 0 1.606-.015 2.896-.015 3.286 0 .315.21.69.825.57C20.565 22.092 24 17.592 24 12.297c0-6.627-5.373-12-12-12" />
</symbol>
<symbol id="instagram" viewBox="0 0 24 24">
  <rect x="2" y="2" width="20" height="20" fill="var(--icon-color-secondary, transparent)" />
  <path
    d="M12 0C8.74 0 8.333.015 7.053.072 5.775.132 4.905.333 4.14.63c-.789.306-1.459.717-2.126 1.384S.935 3.35.63 4.14C.333 4.905.131 5.775.072 7.053.012 8.333 0 8.74 0 12s.015 3.667.072 4.947c.06 1.277.261 2.148.558 2.913.306.788.717 1.459 1.384 2.126.667.666 1.336 1.079 2.126 1.384.766.296 1.636.499 2.913.558C8.333 23.988 8.74 24 12 24s3.667-.015 4.947-.072c1.277-.06 2.148-.262 2.913-.558.788-.306 1.459-.718 2.126-1.384.666-.667 1.079-1.335 1.384-2.126.296-.765.499-1.636.558-2.913.06-1.28.072-1.687.072-4.947s-.015-3.667-.072-4.947c-.06-1.277-.262-2.149-.558-2.913-.306-.789-.718-1.459-1.384-2.126C21.319 1.347 20.651.935 19.86.63c-.765-.297-1.636-.499-2.913-.558C15.667.012 15.26 0 12 0zm0 2.16c3.203 0 3.585.016 4.85.071 1.17.055 1.805.249 2.227.415.562.217.96.477 1.382.896.419.42.679.819.896 1.381.164.422.36 1.057.413 2.227.057 1.266.07 1.646.07 4.85s-.015 3.585-.074 4.85c-.061 1.17-.256 1.805-.421 2.227-.224.562-.479.96-.899 1.382-.419.419-.824.679-1.38.896-.42.164-1.065.36-2.235.413-1.274.057-1.649.07-4.859.07-3.211 0-3.586-.015-4.859-.074-1.171-.061-1.816-.256-2.236-.421-.569-.224-.96-.479-1.379-.899-.421-.419-.69-.824-.9-1.38-.165-.42-.359-1.065-.42-2.235-.045-1.26-.061-1.649-.061-4.844 0-3.196.016-3.586.061-4.861.061-1.17.255-1.814.42-2.234.21-.57.479-.96.9-1.381.419-.419.81-.689 1.379-.898.42-.166 1.051-.361 2.221-.421 1.275-.045 1.65-.06 4.859-.06l.045.03zm0 3.678c-3.405 0-6.162 2.76-6.162 6.162 0 3.405 2.76 6.162 6.162 6.162 3.405 0 6.162-2.76 6.162-6.162 0-3.405-2.76-6.162-6.162-6.162zM12 16c-2.21 0-4-1.79-4-4s1.79-4 4-4 4 1.79 4 4-1.79 4-4 4zm7.846-10.405c0 .795-.646 1.44-1.44 1.44-.795 0-1.44-.646-1.44-1.44 0-.794.646-1.439 1.44-1.439.793-.001 1.44.645 1.44 1.439z" />
</symbol>
<symbol id="linkedin" viewBox="0 0 24 24">
  <rect x="2" y="2" width="50" height="19" fill="var(--icon-color-secondary, transparent)" />
  <path
    d="M20.447 20.452h-3.554v-5.569c0-1.328-.027-3.037-1.852-3.037-1.853 0-2.136 1.445-2.136 2.939v5.667H9.351V9h3.414v1.561h.046c.477-.9 1.637-1.85 3.37-1.85 3.601 0 4.267 2.37 4.267 5.455v6.286zM5.337 7.433a2.062 2.062 0 0 1-2.063-2.065 2.064 2.064 0 1 1 2.063 2.065zm1.782 13.019H3.555V9h3.564v11.452zM22.225 0H1.771C.792 0 0 .774 0 1.729v20.542C0 23.227.792 24 1.771 24h20.451C23.2 24 24 23.227 24 22.271V1.729C24 .774 23.2 0 22.222 0h.003z" />
</symbol>
<symbol id="mastodon" viewBox="0 0 217 232">
  <rect x="30" y="35" width="150" height="125" fill="var(--icon-color-secondary, transparent)" />
  <path
    d="M108 11.8c-26.7.2-52.3 3.1-67.3 10 0 0-29.6 13.2-29.6 58.5 0 10.4-.2 22.7 0 35.9 1.2 44.2 8.2 87.9 49.1 98.7 18.9 5 35 6 48.1 5.3 23.7-1.3 37-8.4 37-8.4l-.8-17.2s-17 5.3-35.9 4.7c-18.8-.7-38.7-2-41.7-25.1-.3-2-.4-4.2-.4-6.5 0 0 18.4 4.5 41.8 5.6 14.3.6 27.8-.9 41.4-2.5 26.1-3.1 48.9-19.2 51.8-34 4.5-23.1 4-56.5 4-56.5 0-45.3-29.6-58.5-29.6-58.5-15-6.9-40.6-9.8-67.3-10h-.6zM77.8 47.2a28 28 0 0 1 25 12.8l5.5 9 5.4-9a28 28 0 0 1 25.1-12.8c9.6 0 17.3 3.3 23.2 10a39.3 39.3 0 0 1 8.6 26.6v54.8H149V85.4c0-11.2-4.7-16.9-14.1-16.9-10.5 0-15.7 6.8-15.7 20.1v29.1H97.5v-29c0-13.4-5.2-20.2-15.7-20.2-9.4 0-14.1 5.7-14.1 17v53.1H46V83.8c0-11.2 2.8-20.1 8.6-26.7 5.9-6.6 13.6-10 23.2-10z" />
</symbol>
<symbol id="telegram" viewBox="0 0 24 24">
  <path style="fill: var(--icon-color-secondary, transparent);"
    d="M3.08 12.385c.642-.192 15.69-6.513 15.69-6.513l-2.823 13.444z" />
  <path
    d="M11.944 0A12 12 0 0 0 0 12a12 12 0 0 0 12 12 12 12 0 0 0 12-12A12 12 0 0 0 12 0a12 12 0 0 0-.056 0zm4.962 7.224c.1-.002.321.023.465.14a.506.506 0 0 1 .171.325c.016.093.036.306.02.472-.18 1.898-.962 6.502-1.36 8.627-.168.9-.499 1.201-.82 1.23-.696.065-1.225-.46-1.9-.902-1.056-.693-1.653-1.124-2.678-1.8-1.185-.78-.417-1.21.258-1.91.177-.184 3.247-2.977 3.307-3.23.007-.032.014-.15-.056-.212s-.174-.041-.249-.024c-.106.024-1.793 1.14-5.061 3.345-.48.33-.913.49-1.302.48-.428-.008-1.252-.241-1.865-.44-.752-.245-1.349-.374-1.297-.789.027-.216.325-.437.893-.663 3.498-1.524 5.83-2.529 6.998-3.014 3.332-1.386 4.025-1.627 4.476-1.635z" />
</symbol>
<symbol id="twitch" viewBox="0 0 1024 1024">
  <path style="fill: var(--icon-color-secondary, transparent);"
    d="M 298.096,84.191 V 618.932 H 458.514 V 743.705 L 583.287,618.932 H 725.904 L 868.479,476.355 V 84.191 Z" />
  <path
    d="m262.451 12.904-178.26 178.26v641.672h213.905v178.26l178.26-178.26h142.576L939.809 512V12.904H262.45zm35.645 71.287h570.383v392.164L725.904 618.932H583.287L458.514 743.705V618.932H298.096V84.192zM494.158 208.51v216.36h71.328V208.51h-71.328zm196 0v216.36h71.328V208.51h-71.328z" />
</symbol>
<symbol id="twitter" viewBox="0 0 24 24">
  <path
    d="M23.953 4.57a10 10 0 0 1-2.825.775 4.958 4.958 0 0 0 2.163-2.723c-.951.555-2.005.959-3.127 1.184a4.92 4.92 0 0 0-8.384 4.482C7.69 8.095 4.067 6.13 1.64 3.162a4.822 4.822 0 0 0-.666 2.475c0 1.71.87 3.213 2.188 4.096a4.904 4.904 0 0 1-2.228-.616v.06a4.923 4.923 0 0 0 3.946 4.827 4.996 4.996 0 0 1-2.212.085 4.936 4.936 0 0 0 4.604 3.417 9.867 9.867 0 0 1-6.102 2.105c-.39 0-.779-.023-1.17-.067a13.995 13.995 0 0 0 7.557 2.209c9.053 0 13.998-7.496 13.998-13.985 0-.21 0-.42-.015-.63A9.935 9.935 0 0 0 24 4.59z" />
</symbol>
<symbol id="youtube" viewBox="0 0 24 24">
  <path
    d="M23.498 6.186a3.016 3.016 0 0 0-2.122-2.136C19.505 3.545 12 3.545 12 3.545s-7.505 0-9.377.505A3.017 3.017 0 0 0 .502 6.186C0 8.07 0 12 0 12s0 3.93.502 5.814a3.016 3.016 0 0 0 2.122 2.136c1.871.505 9.376.505 9.376.505s7.505 0 9.377-.505a3.015 3.015 0 0 0 2.122-2.136C24 15.93 24 12 24 12s0-3.93-.502-5.814zM9.545 15.568V8.432L15.818 12l-6.273 3.568z" />
  <path d="m 9.545,8.432 v 7.136 L 15.818,12 Z" style="fill: var(--icon-color-secondary, transparent);" />
</symbol>
</svg>
