<svg id="atomico" viewBox="0 0 260 260">
  <path fill="#150202"
    d="M172 46a43 43 0 0 0-37 20 74 74 0 0 0-12-1 74 74 0 0 0-75 74 74 74 0 0 0 75 75 74 74 0 0 0 30-7 37 37 0 0 0 18 5 37 37 0 0 0 36-37 37 37 0 0 0-11-27 74 74 0 0 0 1-9 74 74 0 0 0-2-14 43 43 0 0 0 20-36 43 43 0 0 0-43-43z" />
  <g fill="#fff">
    <path
      d="M193 197a31 31 0 0 1-3 3h-28a72 72 0 0 0 5-4h27a31 31 0 0 1-1 1zm4-4h-26a73 73 0 0 0 4-4h24a31 31 0 0 1-2 4zm-13 11a31 31 0 0 1-12 2 31 31 0 0 1-13-2h25zm17-19h-23a73 73 0 0 0 3-3h21a31 31 0 0 1-1 3zm1-7h-19a72 72 0 0 0 3-4h16a32 32 0 0 1 0 4zm0-7h-15a71 71 0 0 0 2-4h12a31 31 0 0 1 1 4zm-2-8h-10l2-4h6a31 31 0 0 1 2 4zm-5-7h-2a71 71 0 0 0 0-3 31 31 0 0 1 2 3zM171 188a69 69 0 0 1-11 8 68 68 0 0 1-12 7 68 68 0 0 1-13 3 69 69 0 0 1-13 2 69 69 0 0 1-13-2 68 68 0 0 1-13-3 68 68 0 0 1-11-7 69 69 0 0 1-11-8 69 69 0 0 1-9-11 68 68 0 0 1-6-12 68 68 0 0 1-4-13 69 69 0 0 1-1-13 69 69 0 0 1 1-13 68 68 0 0 1 4-13 68 68 0 0 1 6-11 69 69 0 0 1 9-11 69 69 0 0 1 13-10 68 68 0 0 1 14-7 69 69 0 0 1 16-3 69 69 0 0 1 16 1 43 43 0 0 0 8 48 43 43 0 0 0 49 9 69 69 0 0 1 0 16 69 69 0 0 1-3 15 68 68 0 0 1-6 15 69 69 0 0 1-10 13z" />
    <path
      d="m185 125 23-22a38 38 0 0 1-9 14 38 38 0 0 1-14 8zm-8 3a39 39 0 0 1-7 0l40-40a39 39 0 0 1 0 7zm-13-1a39 39 0 0 1-5-1l49-49a39 39 0 0 1 1 5zm-10-3a38 38 0 0 1-4-3l54-53a38 38 0 0 1 2 4zm-7-5-3-2-1-2 55-54 1 1 2 2zm-7-7a38 38 0 0 1-2-4l52-52a38 38 0 0 1 4 2zm-4-8a38 38 0 0 1-2-6l47-46a38 38 0 0 1 5 2zm-3-11a39 39 0 0 1 0-7l35-35a39 39 0 0 1 7 0zm1-14a38 38 0 0 1 10-17 38 38 0 0 1 17-10z" />
  </g>
</svg>
