<svg id="gulpjs" viewBox="0 0 175 387">
  <path d="m20 288 4 7 29 22 74-10 22-12 4-7 21-184v-6l-78-7-95 7 3 17 16 173z" fill="#f7fcff" />
  <g fill="#DA4648">
    <path
      d="M87 86C39 86 0 91 0 98s39 12 87 12c49 0 87-5 87-12s-38-12-87-12zm25 13c6 0 10 1 10 2 0 2-4 3-10 3s-10-1-10-3c0-1 4-2 10-2zm62 5-5 2-20 4a472 472 0 0 1-147-6l6 62 7 62 5 60c2 4 30 13 67 13s65-9 66-13l8-71 1-10 2-11 1-9 9-83zm-25 191-14 4a211 211 0 0 1-111-4l12 19 4 60c0 7 21 12 48 12 26 0 47-5 47-12l4-60 10-19z" />
    <path d="M104 100v1l8 1 8-1 11-45 43-45c1-1-1-5-4-7-3-3-6-4-7-3l-46 49-13 50z" />
  </g>
</svg>
