<svg id="postcss" viewBox="0 0 512 512">
  <path fill="#dd3735"
    d="M248 2a97 97 0 0 0-1 0 146 146 0 0 0-14 1l-15 2-16 2-16 3-6 1a108 108 0 0 0-13 3 336 336 0 0 0-22 7 202 202 0 0 0-19 9l-19 12-17 13a200 200 0 0 0-16 14l-7 9-13 14-10 14a218 218 0 0 0-15 24l-5 10-8 16a65 65 0 0 0-4 11l-7 26a96 96 0 0 0-3 23 162 162 0 0 0 1 20c1 2-1 4 2 5l-1 1a2 2 0 0 0 1 3 1 1 0 0 1 1 0H5v4l1 2a6 6 0 0 0 0 2 40 40 0 0 1 1 4l1 4a2 2 0 0 1 0 2c-1 1-1 2 1 3a2 2 0 0 1 1 1 19 19 0 0 1-1 3v2a23 23 0 0 1 2 9 7 7 0 0 0 1 2 3 3 0 0 1 1 1l-1 3a14 14 0 0 1 2-1 53 53 0 0 0 2 6 3 3 0 0 0 1 1l-1 1a52 52 0 0 0 3 9l-1-10v-1a12 12 0 0 1 1 2l5 1a16 16 0 0 1 0-1l-3-4a5 5 0 0 1 0 2l-2-1a30 30 0 0 1 2-2c0-2-1-3-3-3l3-1a12 12 0 0 0 1 1c1-2-1-4-1-7a44 44 0 0 0-2-9l-1-16-1-1-1 2 1 13-3-12a20 20 0 0 0 0 3l-1-1 1 4a6 6 0 0 0-2-1v5a23 23 0 0 1-3-4l-1-4a9 9 0 0 1 0-2l-1-4 2-1-2-2a28 28 0 0 0 3 0v-5l2-1c2-3 4-5 4-8a46 46 0 0 1 1-5v-8a79 79 0 0 1 1-11 235 235 0 0 1 10-31 199 199 0 0 1 8-20l15-27 11-16 10-16a139 139 0 0 1 18-19l21-19a209 209 0 0 1 31-19 232 232 0 0 1 27-12l18-5a72 72 0 0 1 20-3l14-2 13-1a8 8 0 0 0-1 2l-6 8-5 7-8 11-12 17-12 16-17 22-16 21-12 19-19 28-15 21a4 4 0 0 1-2 1l-1 1a20 20 0 0 1 0 3l-5 8-3 4h-1c1-2 4-3 3-6l-3 4-2 4c1 1 2 1 1 2l-2 3 2-2a25 25 0 0 1-2 5 14 14 0 0 1-4 4h2l1-1h1a8 8 0 0 0 1-1 6 6 0 0 1 4-4 7 7 0 0 0 2-1l15-16 20-27 10-11a230 230 0 0 0 0 11l-2 19v15l-2 19a10 10 0 0 0 1 4 5 5 0 0 0-1-1 188 188 0 0 1 1 30l1-1a26 26 0 0 0 0-4 21 21 0 0 0 0-3v-2a58 58 0 0 0 1-9 32 32 0 0 1 0-10l1-5v3a239 239 0 0 1-1 29c-1 1 0 2-2 2l-1 2v9l1 1v11h1a128 128 0 0 0 2-20 68 68 0 0 1 0 9v13a13 13 0 0 1-1 2 46 46 0 0 1-1 7 19 19 0 0 0 0 7v13l-1 1a2 2 0 0 0 0 1l1 3v1a5 5 0 0 0 0-2c3 0 2 3 3 4l-1 1a8 8 0 0 1 0 2 39 39 0 0 1 0 4v18h1a9 9 0 0 1-2 2v-22h-3a180 180 0 0 1-1 29 44 44 0 0 1-5 1h-35l-9 1-13-1-19 1H48l-9 1a28 28 0 0 0-4 1 15 15 0 0 0-3 0l-5 2c-2 0-3 1-3 3v2a5 5 0 0 0-1-1l1 2 2-1h2l-1 1 3-1a5 5 0 0 1 0 2 22 22 0 0 1 7-1 136 136 0 0 0 20 3l13 1 20 1 15-1 22 1h18l33-1 19-1 20-1h39l19-1 10-1 13-1 18-1 24-1 21-1h20l10-1h11l19-2h39l-3 3a11 11 0 0 1 2 1h-1l-2 1a11 11 0 0 0-1 3h3l-3 2v1c-2-1-3-1-4 1a4 4 0 0 0 2 0l-1 2a3 3 0 0 0 0 1h-1a2 2 0 0 0 0-1c-1 1-3 1-2 4l-2 1a8 8 0 0 1 1 1c-2 0-3 0-3 2l2 1-3 1-1 2c-2 0-1 1 0 2a7 7 0 0 1-1 1 3 3 0 0 1 1 0 10 10 0 0 1-1 1 6 6 0 0 0 1 0l-3 2a2 2 0 0 0 0 1 15 15 0 0 0-2 3 34 34 0 0 1-2 3 63 63 0 0 1-11 12 37 37 0 0 0-4 4l-9 9-14 10-17 12-9 5-10 6a49 49 0 0 1-6 4l-18 7h-1l-13 5a98 98 0 0 1-12 4 37 37 0 0 1-4 0l-9 1-23 3-13 2h-9a46 46 0 0 1-7 0l-11-2a5 5 0 0 0-3 0h-4l-2-1h-2a16 16 0 0 0-6-1 22 22 0 0 1-6-1l-9-2a15 15 0 0 1-4-2 3 3 0 0 1-1 1 47 47 0 0 1-9-2 15 15 0 0 0-7-2h-2l-2-2c-3 0-5-3-8-3l-4-3c-4-2-7-5-11-5a25 25 0 0 1-5-2 15 15 0 0 0 2 2h-1l-13-8-2-1-5-3-1-1h-3c-5-3-10-5-14-9a28 28 0 0 1-6-4 27 27 0 0 0-8-7l-8-4a5 5 0 0 1-2-4c0-1-1-3-2-2l-2-2a18 18 0 0 1-5-4c-2-2-3-4-5-4a20 20 0 0 1-8-7l-13-18a12 12 0 0 0-2-1l3 5-1 1-3-4h-1l12 20 3 5a7 7 0 0 1-5-3 6 6 0 0 0-6-4 30 30 0 0 1-1-4 14 14 0 0 1-3 0l7 11-2-1 9 9c1 4 6 6 7 10l-3-1-4-5a9 9 0 0 0 1 3 65 65 0 0 0 7 8l2 2a5 5 0 0 1 1-1 11 11 0 0 0 0 2h1c1 1 0 3 2 2l1 1c0 2 2 2 4 1a1 1 0 0 1 1 0c1 2 2 2 4 1v2h1l-1-1 2 1a29 29 0 0 0 6 7l9 8a131 131 0 0 0 19 13l25 14a132 132 0 0 0 32 11l12 3 11 3 16 4h8c1 2 2 1 3 1a15 15 0 0 1 4-1 132 132 0 0 0 14 1c1 0 2-1 3 1h1l2-1v1a8 8 0 0 1-1 0 14 14 0 0 1 2 0 2 2 0 0 1-1 1 8 8 0 0 0-2 1 38 38 0 0 0 17 0v-1h1a2 2 0 0 0 0 1 55 55 0 0 0 23-3c1 1 2 2 3 0l1-1a9 9 0 0 1 5 0l3-1a32 32 0 0 0 6-1l3-1a28 28 0 0 0-3 0l5-3h1l-2 1h2l-2 3 18-5h-2c0-3 4-2 5-4l-5 1 18-8v1l-4 2a22 22 0 0 1 2 0v1c3 0 2-3 3-4h2a44 44 0 0 0 5-1 57 57 0 0 0 5-2l8-4a8 8 0 0 1 2 0 2 2 0 0 0 1-1l2-1a4 4 0 0 0 5-3 25 25 0 0 1 3-2l11-6h1a4 4 0 0 0 1 0l6-4h-1v-1a21 21 0 0 0 3 0v-1l14-11a10 10 0 0 0 2 0 4 4 0 0 0 0-1 16 16 0 0 1 2-3l11-10 15-15a139 139 0 0 0 11-15l13-23 9-16 2-1 14-2a13 13 0 0 0 3-1l-2-3-2-3a16 16 0 0 1-2-3l-1-2a62 62 0 0 1-3-6 4 4 0 0 1 0-2l7-20a105 105 0 0 0 5-22l3-21 1-15a144 144 0 0 0 1-22l-1-20-1-20-5-27a155 155 0 0 0-7-22 257 257 0 0 0-10-24 378 378 0 0 0-24-36c-5-7-12-13-17-21a53 53 0 0 0-11-12l-22-15a193 193 0 0 0-16-11l-15-7a73 73 0 0 0-17-6 44 44 0 0 1-4-2l-12-4-18-5a164 164 0 0 0-18-4l-21-2-13-1-20-1a97 97 0 0 0-9 0zm14 20 7 1h8l18 2 16 3a220 220 0 0 1 33 8l18 8a377 377 0 0 1 41 19 40 40 0 0 1 9 9l13 14 15 17 13 16a55 55 0 0 1 3 5l9 12a71 71 0 0 1 4 11l5 16 3 12 1 8 1 11 1 2v2a2 2 0 0 0 0 1 7 7 0 0 0 1-1v1a8 8 0 0 0 0 2 4 4 0 0 0 0 1 14 14 0 0 1 2-1 68 68 0 0 1 1 18 40 40 0 0 1-1 16v-5a9 9 0 0 1-2-1v2l-1-1 1 7 3-1c-3 3-2 6-1 8 1 1 2 3 1 4v2h1v1h-2l-2-2v8l2 4a5 5 0 0 0 1-1 20 20 0 0 1-1 3 41 41 0 0 0-1 5l1 1a51 51 0 0 0-2 13v10a81 81 0 0 1-2 9l-1 1a14 14 0 0 0 0-5l-3-1a58 58 0 0 0 2 8l-3-1v7l-2 5 1 3h1l2-10 1 1a23 23 0 0 0-1 6v3a17 17 0 0 0 0 4 10 10 0 0 1-1-2h-1c-1 1 1 2 1 3h-1l-6-8-13-20a41 41 0 0 1-3-5 241 241 0 0 0-18-26l-13-20-13-19-5-6-13-21-12-17-4-6a3 3 0 0 1 0-2l-1-11v-13l1-3h-15a8 8 0 0 1-7-4 284 284 0 0 1-17-23l-16-23-14-18-15-20-19-25-9-11zm221 208zM246 31l1 1 14 17 10 13 12 16 13 20 19 28 14 21h-33l-33 2a487 487 0 0 1-41 2l-15 1-18 1h-33l16-22 5-7a11 11 0 0 1 2-2 16 16 0 0 0 2-3 35 35 0 0 0 2-4 2 2 0 0 1 0-1c3 1 3-1 4-2l4-5a35 35 0 0 0 3-4v-2h-1l2-2 3-4a74 74 0 0 1 7-8l-1 2 6-8-3 3v-1l5-7a26 26 0 0 1 1 3l2-4-1 1h-1l3-5 10-14 4-5a181 181 0 0 1 12-17 28 28 0 0 1 3-4h1zm-47 67-3 2h-1l1 3 3-5zm144 70a3 3 0 0 1 3 2l5 8a3 3 0 0 1 0 1v12l1 11v32h-1l-2-8a58 58 0 0 0-7-14l-9-15a28 28 0 0 0-3-3 60 60 0 0 0-12-11 140 140 0 0 0-22-11 50 50 0 0 1-6-3h34l18-1a3 3 0 0 1 1 0zm-129 5a37 37 0 0 1 4 0 58 58 0 0 0-8 4l-9 7a52 52 0 0 0-9 8l-10 11a107 107 0 0 0-7 8l-8 12 1-48 23-2h19a37 37 0 0 1 4 0zm43 8 15 1a26 26 0 0 1 7 1 61 61 0 0 1 7 4 85 85 0 0 1 9 5l14 9a39 39 0 0 1 12 12 53 53 0 0 1 10 16l2 12a14 14 0 0 1 1 6l-2 13a18 18 0 0 0 0 5 32 32 0 0 1-4 15l-3 5a5 5 0 0 0 2 0l1-3v1l-2 7-7 16a83 83 0 0 1-5 8l-5 7a24 24 0 0 1-5 5 132 132 0 0 1-14 10 36 36 0 0 1-10 4v-1a139 139 0 0 1-17 4 105 105 0 0 1-15 0h-13a45 45 0 0 1-15-3l-12-6a33 33 0 0 1-11-8 66 66 0 0 0-8-8 8 8 0 0 0 3 5c-1 1-2 1-4-2a10 10 0 0 1-1 1l2-4-3-4-4-7v-1a37 37 0 0 1-3-3 69 69 0 0 0-4-7v2l-4-8 3 11h-1a10 10 0 0 1-1-2l-2-1a2 2 0 0 0-1 2l4 9a21 21 0 0 0 1 3l1 1a29 29 0 0 0 2 4l5 6 4 6 1 1c1 2 4 4 6 3 0 4 5 6 6 9l-5-2v1a66 66 0 0 1 6 3 49 49 0 0 1 5 3 16 16 0 0 0 7 4 2 2 0 0 0 0-1l13 7-56 1v-10a30 30 0 0 0 0-4c0-8 0-15-2-23a167 167 0 0 1 0-25l-1-13v-18a6 6 0 0 1 1-2h1v1l2 1 3-2a17 17 0 0 0 1-7 6 6 0 0 1 1-3 16 16 0 0 0 1-2l-2-2c0-1 0-4 3-5v-1l1-5a5 5 0 0 0 1 1v-2c2 0 1-3 2-4v-2c3 0 2-3 4-4l1-2c2 3-1 4-1 6 3-2 4-6 2-7a10 10 0 0 0 2-2l6-6c1-2 1-4 3-5a10 10 0 0 1 3-2 21 21 0 0 0 8-7 9 9 0 0 1 1-1l2-1-1-1 3-2-1 3h1l5-3-1-1-4 2 1-1a63 63 0 0 1 7-4l18-8a8 8 0 0 1 3-1 4 4 0 0 0 2 0l8-2a14 14 0 0 1 4-1zm-6 3-5 3-1 1 4-2a6 6 0 0 1 2 1 13 13 0 0 1 0-3zm123 29a53 53 0 0 1 5 6 179 179 0 0 0 14 20l11 18 14 21 10 16 11 13 8 12 11 14 5 7a21 21 0 0 0 4 4 1 1 0 0 1-1-1 16 16 0 0 0 1 2c2 1 2 2 1 4v1a11 11 0 0 1-1-2c-1 3-3 1-4 1l-28 1h-27l-9 1h-21l-2-1a11 11 0 0 1-1 1l-1-1a12 12 0 0 1 0 2h-1a50 50 0 0 1-1-7l1-16v-7l1 2a15 15 0 0 1 2-2 3 3 0 0 1-1-1h1a7 7 0 0 0 0-2 18 18 0 0 0 0-3l1 5h1c-1-1 1-2-1-4v-1a36 36 0 0 1-1-4 4 4 0 0 1 1 0 16 16 0 0 0-1-1v-5a21 21 0 0 0 0-4c0-2 1-4-2-5a5 5 0 0 0 1 1 5 5 0 0 0-1 1c-3-2-1-5-2-8a28 28 0 0 1 3 1l-1-4h-1v-11h2v-1l-2-2a6 6 0 0 1 0-5v-12c1 2-1 4 1 5v-9l-1 1zM86 227a192 192 0 0 0-6 8l2 1 6-8-2-1zm-11 9-5 5h2l4-5a2 2 0 0 1-1 0zm3 2-3 2a1 1 0 0 1 1 1c-2 0-2 1-3 3l-2 1v2a3 3 0 0 1-1 1l-3 3a5 5 0 0 0-1 1l5-5v1l2-3-1 4-1 1-2 1-3 2-5 5-4 6c2-1 3 0 3 2 2 0 2-2 3-3v-1l5-4a2 2 0 0 0 1-2h-2l6-7 1-1c0-2 1-3 2-3a10 10 0 0 1-5 7 3 3 0 0 0 2 1l1-2 4-6 2-3h-1l-2 3a2 2 0 0 1-1-2 7 7 0 0 1 1-1 4 4 0 0 0 1 0l1-3zm1 4v-1zm270 52a388 388 0 0 0 5 58l-59 2a69 69 0 0 0 20-14 18 18 0 0 1 3-2 60 60 0 0 0 17-17 237 237 0 0 0 13-25 19 19 0 0 1 1-2zm-324 4a4 4 0 0 0-1 1l2 5a5 5 0 0 1 1-1l-2-5zm452 7v1zm-457 0v2l1 2v-1zm9 4a6 6 0 0 0-1 0l4 9a14 14 0 0 0 1 0 60 60 0 0 0-4-9zm-3 7-1 1h-3l1 1h4l-1-2zm-4 1zm161 5 6 8h-1a4 4 0 0 1-1 0l-4-6a2 2 0 0 1 0-2zm191 10v6l2-1-2-1c4-2 0-3 0-4zM76 428l5 6h2l1 3-3-3a8 8 0 0 1-2-1l-4-5zm333 33a29 29 0 0 0-3 0v1l-1 1v1a40 40 0 0 1 4-3zm-8 4-6 4a16 16 0 0 0 6-3zm-18 8c1 2 2 2 4 1a28 28 0 0 1-4-1zm-67 24c-8 2-10 3-11 2zm-11 2v1a11 11 0 0 0-3 0l-7 1h-3c0 3 3 1 4 2l-11 1 4-1a51 51 0 0 0-6-1l-1 1a9 9 0 0 1-2 1h-10v-1zm-36 4v1a91 91 0 0 1-10 1v-1z" />
</svg>
