<svg id="rollup" viewBox="0 0 512 512">
  <defs>
    <linearGradient id="a" x1="109" x2="213" y1="154" y2="172">
      <stop offset="0%" stop-color="#FF6533" />
      <stop offset="16%" stop-color="#FF5633" />
      <stop offset="43%" stop-color="#FF4333" />
      <stop offset="71%" stop-color="#FF3733" />
      <stop offset="100%" stop-color="#F33" />
    </linearGradient>
    <linearGradient id="b" x1="93" x2="280" y1="128" y2="236">
      <stop offset="0%" stop-color="#BF3338" />
      <stop offset="100%" stop-color="#F33" />
    </linearGradient>
    <linearGradient id="c" x1="104" x2="132" y1="142" y2="162">
      <stop offset="0%" stop-color="#FF6533" />
      <stop offset="16%" stop-color="#FF5633" />
      <stop offset="43%" stop-color="#FF4333" />
      <stop offset="71%" stop-color="#FF3733" />
      <stop offset="100%" stop-color="#F33" />
    </linearGradient>
    <linearGradient id="d" x1="151" x2="146" y1="226" y2="222">
      <stop offset="0%" stop-color="#FF6533" />
      <stop offset="100%" stop-color="#F33" />
    </linearGradient>
    <linearGradient id="e" x1="110" x2="148" y1="151" y2="171">
      <stop offset="0%" stop-color="#FBB040" />
      <stop offset="100%" stop-color="#FB8840" />
    </linearGradient>
    <linearGradient id="f" x1="1" x2="0" y1="0" y2="1">
      <stop offset="0%" stop-color="#FFF" />
      <stop offset="100%" stop-color="#FFF" stop-opacity="0" />
    </linearGradient>
  </defs>
  <path fill="url(#a)"
    d="M413 188c0-25-6-47-17-67-30-31-94-38-110 0-17 38 27 81 46 77 25-4-4-60-4-60 38 71 29 49-39 114S152 454 142 460h-1 266c4 0 7-5 5-9l-69-137a6 6 0 0 1 2-9 135 135 0 0 0 68-117z" />
  <path fill="url(#b)"
    d="M413 188c0-25-6-47-17-67-30-31-94-38-110 0-17 38 27 81 46 77 25-4-4-60-4-60 38 71 29 49-39 114S152 454 142 460h-1 266c4 0 7-5 5-9l-69-137a6 6 0 0 1 2-9 135 135 0 0 0 68-117z" />
  <path fill="url(#c)" d="M142 460c10-6 79-143 147-208s77-43 39-114c0 0-143 201-195 301" />
  <path fill="url(#d)"
    d="M162 279C259 101 272 83 322 83c27 0 54 12 71 33a135 135 0 0 0-113-64H115a6 6 0 0 0-6 6v332c10-25 26-61 53-111z" />
  <path fill="url(#e)"
    d="M289 252c-68 65-137 202-147 208-10 5-27 6-36-4-10-11-25-28 56-177C259 101 272 83 322 83c27 0 54 12 71 33a268 268 0 0 1 3 5c-30-31-94-38-110 0-17 38 27 81 46 77 25-4-4-60-4-60 38 71 29 49-39 114z" />
  <path fill="url(#f)" opacity=".3"
    d="M170 287c97-178 110-196 160-196 22 0 44 8 60 23-17-20-43-31-68-31-50 0-63 18-160 196-81 149-66 166-56 177 1 1 3 3 4 4-8-12-12-40 59-172z" />
</svg>
