<svg id="discord" viewBox="0 0 24 24">
  <path fill="var(--icon-color-secondary, transparent)" d="M4.043 16.428 6.257 4.973l11.903-.256 1.38 11.775z" />
  <path
    d="M9.735 10.078c-.677 0-1.211.593-1.211 1.318 0 .724.546 1.318 1.211 1.318.677 0 1.212-.594 1.212-1.318.011-.725-.535-1.318-1.212-1.318zm4.335 0c-.677 0-1.212.593-1.212 1.318 0 .724.547 1.318 1.212 1.318.677 0 1.211-.594 1.211-1.318 0-.725-.534-1.318-1.211-1.318z"
    style="stroke-width: 0.118755;" />
  <path
    d="M19.841.114H3.928A2.44 2.44 0 0 0 1.494 2.56v16.056a2.44 2.44 0 0 0 2.434 2.447h13.467l-.63-2.197 1.52 1.413 1.438 1.33 2.553 2.256V2.56A2.44 2.44 0 0 0 19.84.114zm-4.584 15.51s-.427-.511-.783-.962c1.555-.44 2.149-1.414 2.149-1.414-.487.321-.95.547-1.366.701a7.816 7.816 0 0 1-1.722.51 8.32 8.32 0 0 1-3.075-.011 9.97 9.97 0 0 1-1.746-.51 6.96 6.96 0 0 1-.867-.405c-.036-.023-.071-.035-.107-.059a.164.164 0 0 1-.047-.036 4.166 4.166 0 0 1-.333-.201s.57.95 2.078 1.4c-.356.452-.795.987-.795.987-2.625-.084-3.622-1.806-3.622-1.806 0-3.823 1.71-6.923 1.71-6.923 1.71-1.283 3.337-1.247 3.337-1.247l.119.143c-2.138.617-3.124 1.555-3.124 1.555s.262-.142.7-.344c1.272-.558 2.281-.713 2.697-.748.07-.012.13-.024.202-.024a9.68 9.68 0 0 1 5.973 1.116s-.938-.89-2.957-1.508l.166-.19s1.627-.036 3.337 1.247c0 0 1.71 3.1 1.71 6.923 0 0-1.01 1.722-3.634 1.806z" />
</svg>
