<svg id="mastodon" viewBox="0 0 217 232">
  <rect x="30" y="35" width="150" height="125" fill="var(--icon-color-secondary, transparent)" />
  <path
    d="M108 11.8c-26.7.2-52.3 3.1-67.3 10 0 0-29.6 13.2-29.6 58.5 0 10.4-.2 22.7 0 35.9 1.2 44.2 8.2 87.9 49.1 98.7 18.9 5 35 6 48.1 5.3 23.7-1.3 37-8.4 37-8.4l-.8-17.2s-17 5.3-35.9 4.7c-18.8-.7-38.7-2-41.7-25.1-.3-2-.4-4.2-.4-6.5 0 0 18.4 4.5 41.8 5.6 14.3.6 27.8-.9 41.4-2.5 26.1-3.1 48.9-19.2 51.8-34 4.5-23.1 4-56.5 4-56.5 0-45.3-29.6-58.5-29.6-58.5-15-6.9-40.6-9.8-67.3-10h-.6zM77.8 47.2a28 28 0 0 1 25 12.8l5.5 9 5.4-9a28 28 0 0 1 25.1-12.8c9.6 0 17.3 3.3 23.2 10a39.3 39.3 0 0 1 8.6 26.6v54.8H149V85.4c0-11.2-4.7-16.9-14.1-16.9-10.5 0-15.7 6.8-15.7 20.1v29.1H97.5v-29c0-13.4-5.2-20.2-15.7-20.2-9.4 0-14.1 5.7-14.1 17v53.1H46V83.8c0-11.2 2.8-20.1 8.6-26.7 5.9-6.6 13.6-10 23.2-10z" />
</svg>
